<svg width="1655" height="1847" viewBox="0 0 1655 1847" fill="none" xmlns="http://www.w3.org/2000/svg">
<g clip-path="url(#clip0_31_314)">
<path d="M69.9725 75.1442L41.9955 79.9027C37.452 80.6755 30.8574 84.9827 31.9972 90.8019C35.3088 103.616 36.6566 112.859 36.9166 115.879C36.9966 117.798 37.8525 122.334 40.6361 125.117C45.3875 129.197 53.2145 127.497 56.5341 126.137C59.0937 125.097 66.5768 122.814 76.0316 121.998C89.5658 119.406 88.07 109.639 85.6303 105.08C84.2705 102.24 81.5629 94.7974 81.6111 87.742C81.7551 76.0796 73.912 74.4841 69.9725 75.1442Z" fill="#F6F3DE"/>
</g>
<path d="M286.891 74.5624L270.473 97.7098C267.807 101.469 266.189 109.178 271.11 112.487C282.513 119.206 290.001 124.789 292.32 126.74C293.734 128.041 297.547 130.643 301.483 130.643C307.728 130.168 312.06 123.431 313.446 120.122C314.521 117.577 318.197 110.671 324.306 103.409C332.043 92.0058 324.08 86.1574 319.13 84.6585C316.161 83.6121 308.983 80.2636 304.029 75.2407C295.884 66.8922 289.21 71.3099 286.891 74.5624Z" fill="#F6F3DE"/>
<path d="M455.357 6.01816L438.939 29.1656C436.273 32.9248 434.655 40.6336 439.576 43.9424C450.979 50.6619 458.468 56.2445 460.787 58.1959C462.201 59.4968 466.013 62.0986 469.95 62.0986C476.194 61.6235 480.526 54.887 481.912 51.5782C482.987 49.0329 486.663 42.1268 492.772 34.8643C500.51 23.4616 492.546 17.6132 487.597 16.1143C484.627 15.0679 477.45 11.7194 472.495 6.69646C464.35 -1.65197 457.676 2.76575 455.357 6.01816Z" fill="#F6F3DE"/>
<path d="M279.159 190.508L262.741 213.656C260.075 217.415 258.458 225.124 263.378 228.433C274.781 235.152 282.27 240.735 284.589 242.686C286.003 243.987 289.815 246.589 293.752 246.589C299.996 246.114 304.329 239.377 305.714 236.068C306.789 233.523 310.466 226.617 316.574 219.355C324.312 207.952 316.348 202.103 311.399 200.605C308.429 199.558 301.252 196.21 296.297 191.187C288.152 182.838 281.478 187.256 279.159 190.508Z" fill="#F6F3DE"/>
<g clip-path="url(#clip1_31_314)">
<path d="M244.073 368.652L216.096 373.41C211.552 374.183 204.958 378.49 206.097 384.309C209.409 397.124 210.757 406.366 211.017 409.386C211.097 411.306 211.953 415.841 214.736 418.625C219.488 422.704 227.315 421.005 230.634 419.645C233.194 418.605 240.677 416.321 250.132 415.505C263.666 412.914 262.17 403.147 259.73 398.587C258.371 395.748 255.663 388.305 255.711 381.249C255.855 369.587 248.012 367.991 244.073 368.652Z" fill="#F6F3DE"/>
</g>
<path d="M627.36 297.429L610.942 320.577C608.275 324.336 606.658 332.044 611.579 335.353C622.981 342.073 630.47 347.655 632.789 349.607C634.203 350.908 638.015 353.509 641.952 353.509C648.196 353.034 652.529 346.298 653.915 342.989C654.989 340.444 658.666 333.538 664.775 326.275C672.512 314.872 664.548 309.024 659.599 307.525C656.63 306.479 649.452 303.13 644.497 298.107C636.352 289.759 629.678 294.177 627.36 297.429Z" fill="#F6F3DE"/>
<path d="M1090.93 52.1407L1074.51 75.2882C1071.84 79.0474 1070.23 86.7561 1075.15 90.065C1086.55 96.7845 1094.04 102.367 1096.36 104.318C1097.77 105.619 1101.58 108.221 1105.52 108.221C1111.76 107.746 1116.1 101.01 1117.48 97.7007C1118.56 95.1555 1122.23 88.2494 1128.34 80.9869C1136.08 69.5842 1128.12 63.7357 1123.17 62.2369C1120.2 61.1905 1113.02 57.842 1108.07 52.819C1099.92 44.4706 1093.25 48.8883 1090.93 52.1407Z" fill="#F6F3DE"/>
<path d="M539.261 479.823L522.843 502.97C520.176 506.73 518.559 514.438 523.48 517.747C534.883 524.467 542.371 530.049 544.69 532.001C546.104 533.302 549.917 535.903 553.853 535.903C560.098 535.428 564.43 528.692 565.816 525.383C566.891 522.838 570.567 515.932 576.676 508.669C584.413 497.266 576.449 491.418 571.5 489.919C568.531 488.873 561.353 485.524 556.398 480.501C548.254 472.153 541.58 476.571 539.261 479.823Z" fill="#F6F3DE"/>
<path d="M363.063 668.506L346.645 691.654C343.979 695.413 342.361 703.122 347.282 706.43C358.685 713.15 366.174 718.733 368.493 720.684C369.907 721.985 373.719 724.587 377.655 724.587C383.9 724.111 388.232 717.375 389.618 714.066C390.693 711.521 394.369 704.615 400.478 697.352C408.216 685.95 400.252 680.101 395.303 678.602C392.333 677.556 385.155 674.207 380.201 669.185C372.056 660.836 365.382 665.254 363.063 668.506Z" fill="#F6F3DE"/>
<g clip-path="url(#clip2_31_314)">
<path d="M325.879 842.456L297.902 847.215C293.358 847.988 286.764 852.295 287.903 858.114C291.215 870.929 292.563 880.171 292.823 883.191C292.903 885.111 293.759 889.646 296.542 892.43C301.294 896.509 309.121 894.809 312.44 893.45C315 892.41 322.483 890.126 331.938 889.31C345.472 886.718 343.976 876.952 341.537 872.392C340.177 869.553 337.469 862.11 337.517 855.054C337.661 843.392 329.818 841.796 325.879 842.456Z" fill="#F6F3DE"/>
</g>
<g clip-path="url(#clip3_31_314)">
<path d="M237.78 1022.75L209.803 1027.51C205.259 1028.29 198.665 1032.59 199.805 1038.41C203.116 1051.23 204.464 1060.47 204.724 1063.49C204.804 1065.41 205.66 1069.94 208.444 1072.73C213.195 1076.81 221.022 1075.11 224.341 1073.75C226.901 1072.71 234.384 1070.42 243.839 1069.61C257.373 1067.02 255.877 1057.25 253.438 1052.69C252.078 1049.85 249.37 1042.41 249.418 1035.35C249.562 1023.69 241.719 1022.09 237.78 1022.75Z" fill="#F6F3DE"/>
</g>
<g clip-path="url(#clip4_31_314)">
<path d="M320.532 1503.9L292.555 1508.65C288.012 1509.43 281.417 1513.73 282.557 1519.55C285.869 1532.37 287.216 1541.61 287.476 1544.63C287.556 1546.55 288.412 1551.09 291.196 1553.87C295.947 1557.95 303.774 1556.25 307.094 1554.89C309.654 1553.85 317.137 1551.57 326.591 1550.75C340.126 1548.16 338.63 1538.39 336.19 1533.83C334.83 1530.99 332.123 1523.55 332.171 1516.49C332.315 1504.83 324.472 1503.24 320.532 1503.9Z" fill="#F6F3DE"/>
</g>
<g clip-path="url(#clip5_31_314)">
<path d="M265.048 1176.01L237.071 1180.77C232.528 1181.54 225.933 1185.85 227.073 1191.67C230.384 1204.48 231.732 1213.72 231.992 1216.74C232.072 1218.66 232.928 1223.2 235.712 1225.98C240.463 1230.06 248.29 1228.36 251.61 1227C254.169 1225.96 261.652 1223.68 271.107 1222.86C284.641 1220.27 283.146 1210.5 280.706 1205.94C279.346 1203.1 276.638 1195.66 276.687 1188.61C276.831 1176.94 268.988 1175.35 265.048 1176.01Z" fill="#F6F3DE"/>
</g>
<g clip-path="url(#clip6_31_314)">
<path d="M347.801 1657.15L319.824 1661.91C315.28 1662.68 308.685 1666.99 309.825 1672.81C313.137 1685.62 314.485 1694.87 314.745 1697.88C314.825 1699.8 315.68 1704.34 318.464 1707.12C323.216 1711.2 331.043 1709.5 334.362 1708.14C336.922 1707.1 344.405 1704.82 353.86 1704C367.394 1701.41 365.898 1691.65 363.458 1687.09C362.098 1684.25 359.391 1676.8 359.439 1669.75C359.583 1658.09 351.74 1656.49 347.801 1657.15Z" fill="#F6F3DE"/>
</g>
<g clip-path="url(#clip7_31_314)">
<path d="M669.883 1106.82L641.906 1111.58C637.363 1112.36 630.768 1116.66 631.908 1122.48C635.22 1135.3 636.567 1144.54 636.827 1147.56C636.907 1149.48 637.763 1154.01 640.547 1156.8C645.298 1160.88 653.125 1159.18 656.445 1157.82C659.005 1156.78 666.488 1154.49 675.942 1153.68C689.477 1151.09 687.981 1141.32 685.541 1136.76C684.181 1133.92 681.474 1126.48 681.522 1119.42C681.666 1107.76 673.823 1106.16 669.883 1106.82Z" fill="#F6F3DE"/>
</g>
<g clip-path="url(#clip8_31_314)">
<path d="M1076.82 1035.54L1048.84 1040.3C1044.3 1041.07 1037.7 1045.38 1038.84 1051.2C1042.15 1064.02 1043.5 1073.26 1043.76 1076.28C1043.84 1078.2 1044.7 1082.73 1047.48 1085.52C1052.23 1089.6 1060.06 1087.9 1063.38 1086.54C1065.94 1085.5 1073.42 1083.21 1082.88 1082.4C1096.41 1079.81 1094.91 1070.04 1092.47 1065.48C1091.11 1062.64 1088.41 1055.2 1088.45 1048.14C1088.6 1036.48 1080.76 1034.88 1076.82 1035.54Z" fill="#F6F3DE"/>
</g>
<g clip-path="url(#clip9_31_314)">
<path d="M1425.02 1138.27L1397.04 1143.03C1392.5 1143.8 1385.9 1148.11 1387.04 1153.93C1390.35 1166.74 1391.7 1175.99 1391.96 1179.01C1392.04 1180.93 1392.9 1185.46 1395.68 1188.24C1400.43 1192.32 1408.26 1190.62 1411.58 1189.26C1414.14 1188.22 1421.62 1185.94 1431.08 1185.12C1444.61 1182.53 1443.11 1172.77 1440.67 1168.21C1439.31 1165.37 1436.61 1157.92 1436.66 1150.87C1436.8 1139.21 1428.96 1137.61 1425.02 1138.27Z" fill="#F6F3DE"/>
</g>
<g clip-path="url(#clip10_31_314)">
<path d="M929.985 1389.85L902.008 1394.61C897.464 1395.38 890.87 1399.69 892.009 1405.51C895.321 1418.32 896.669 1427.56 896.929 1430.58C897.009 1432.5 897.865 1437.04 900.648 1439.82C905.4 1443.9 913.227 1442.2 916.546 1440.84C919.106 1439.8 926.589 1437.52 936.044 1436.7C949.578 1434.11 948.082 1424.34 945.643 1419.78C944.283 1416.95 941.575 1409.5 941.623 1402.45C941.767 1390.78 933.924 1389.19 929.985 1389.85Z" fill="#F6F3DE"/>
</g>
<g clip-path="url(#clip11_31_314)">
<path d="M1158.62 1509.35L1130.65 1514.11C1126.1 1514.88 1119.51 1519.19 1120.65 1525.01C1123.96 1537.82 1125.31 1547.06 1125.57 1550.08C1125.65 1552 1126.5 1556.54 1129.29 1559.32C1134.04 1563.4 1141.86 1561.7 1145.18 1560.34C1147.74 1559.3 1155.23 1557.02 1164.68 1556.2C1178.22 1553.61 1176.72 1543.84 1174.28 1539.28C1172.92 1536.44 1170.21 1529 1170.26 1521.95C1170.4 1510.28 1162.56 1508.69 1158.62 1509.35Z" fill="#F6F3DE"/>
</g>
<g clip-path="url(#clip12_31_314)">
<path d="M753.787 1580.63L725.81 1585.39C721.267 1586.16 714.672 1590.47 715.812 1596.29C719.123 1609.1 720.471 1618.34 720.731 1621.36C720.811 1623.28 721.667 1627.82 724.451 1630.6C729.202 1634.68 737.029 1632.98 740.349 1631.62C742.908 1630.58 750.391 1628.3 759.846 1627.48C773.38 1624.89 771.885 1615.12 769.445 1610.56C768.085 1607.72 765.377 1600.28 765.426 1593.23C765.57 1581.56 757.727 1579.97 753.787 1580.63Z" fill="#F6F3DE"/>
</g>
<g clip-path="url(#clip13_31_314)">
<path d="M1508.92 1614.17L1480.94 1618.93C1476.4 1619.7 1469.8 1624.01 1470.94 1629.83C1474.26 1642.64 1475.6 1651.89 1475.86 1654.91C1475.94 1656.83 1476.8 1661.36 1479.58 1664.15C1484.34 1668.23 1492.16 1666.53 1495.48 1665.17C1498.04 1664.13 1505.52 1661.84 1514.98 1661.03C1528.51 1658.43 1527.02 1648.67 1524.58 1644.11C1523.22 1641.27 1520.51 1633.83 1520.56 1626.77C1520.7 1615.11 1512.86 1613.51 1508.92 1614.17Z" fill="#F6F3DE"/>
</g>
<g clip-path="url(#clip14_31_314)">
<path d="M1250.92 842.456L1222.94 847.215C1218.4 847.988 1211.8 852.295 1212.94 858.114C1216.25 870.929 1217.6 880.171 1217.86 883.191C1217.94 885.111 1218.8 889.646 1221.58 892.43C1226.33 896.509 1234.16 894.809 1237.48 893.45C1240.04 892.41 1247.52 890.126 1256.98 889.31C1270.51 886.718 1269.01 876.952 1266.57 872.392C1265.21 869.553 1262.51 862.11 1262.56 855.054C1262.7 843.392 1254.86 841.796 1250.92 842.456Z" fill="#F6F3DE"/>
</g>
<g clip-path="url(#clip15_31_314)">
<path d="M1020.18 1209.34L992.205 1214.1C987.661 1214.87 981.067 1219.18 982.206 1225C985.518 1237.81 986.866 1247.06 987.126 1250.08C987.206 1251.99 988.062 1256.53 990.845 1259.31C995.597 1263.39 1003.42 1261.69 1006.74 1260.33C1009.3 1259.29 1016.79 1257.01 1026.24 1256.19C1039.77 1253.6 1038.28 1243.84 1035.84 1239.28C1034.48 1236.44 1031.77 1228.99 1031.82 1221.94C1031.96 1210.28 1024.12 1208.68 1020.18 1209.34Z" fill="#F6F3DE"/>
</g>
<g clip-path="url(#clip16_31_314)">
<path d="M1334.82 1318.36L1306.84 1323.12C1302.3 1323.89 1295.71 1328.2 1296.85 1334.02C1300.16 1346.83 1301.5 1356.07 1301.76 1359.09C1301.84 1361.01 1302.7 1365.55 1305.48 1368.33C1310.24 1372.41 1318.06 1370.71 1321.38 1369.35C1323.94 1368.31 1331.42 1366.03 1340.88 1365.21C1354.41 1362.62 1352.92 1352.85 1350.48 1348.29C1349.12 1345.45 1346.41 1338.01 1346.46 1330.96C1346.6 1319.29 1338.76 1317.7 1334.82 1318.36Z" fill="#F6F3DE"/>
</g>
<g clip-path="url(#clip17_31_314)">
<path d="M1101.99 1685.24L1074.01 1690C1069.47 1690.77 1062.87 1695.08 1064.01 1700.9C1067.32 1713.71 1068.67 1722.96 1068.93 1725.98C1069.01 1727.9 1069.87 1732.43 1072.65 1735.22C1077.4 1739.29 1085.23 1737.59 1088.55 1736.24C1091.11 1735.2 1098.59 1732.91 1108.05 1732.1C1121.58 1729.5 1120.09 1719.74 1117.65 1715.18C1116.29 1712.34 1113.58 1704.9 1113.63 1697.84C1113.77 1686.18 1105.93 1684.58 1101.99 1685.24Z" fill="#F6F3DE"/>
</g>
<g clip-path="url(#clip18_31_314)">
<path d="M411.88 1318.36L383.903 1323.12C379.36 1323.89 372.765 1328.2 373.905 1334.02C377.216 1346.83 378.564 1356.07 378.824 1359.09C378.904 1361.01 379.76 1365.55 382.544 1368.33C387.295 1372.41 395.122 1370.71 398.442 1369.35C401.001 1368.31 408.484 1366.03 417.939 1365.21C431.473 1362.62 429.977 1352.85 427.538 1348.29C426.178 1345.45 423.47 1338.01 423.519 1330.96C423.663 1319.29 415.82 1317.7 411.88 1318.36Z" fill="#F6F3DE"/>
</g>
<g clip-path="url(#clip19_31_314)">
<path d="M935.229 735.536L907.252 740.294C902.709 741.067 896.114 745.374 897.254 751.194C900.565 764.008 901.913 773.251 902.173 776.27C902.253 778.19 903.109 782.725 905.893 785.509C910.644 789.589 918.471 787.889 921.791 786.529C924.35 785.489 931.833 783.205 941.288 782.389C954.822 779.798 953.327 770.031 950.887 765.472C949.527 762.632 946.82 755.189 946.868 748.134C947.012 736.471 939.169 734.876 935.229 735.536Z" fill="#F6F3DE"/>
</g>
<path d="M711.263 771.234L694.845 794.381C692.179 798.14 690.562 805.849 695.482 809.158C706.885 815.877 714.374 821.46 716.693 823.411C718.107 824.712 721.919 827.314 725.856 827.314C732.1 826.839 736.433 820.103 737.818 816.794C738.893 814.249 742.57 807.342 748.678 800.08C756.416 788.677 748.452 782.829 743.503 781.33C740.533 780.283 733.356 776.935 728.401 771.912C720.256 763.564 713.582 767.981 711.263 771.234Z" fill="#F6F3DE"/>
<path d="M623.164 949.435L606.746 972.582C604.08 976.341 602.463 984.05 607.383 987.359C618.786 994.078 626.275 999.661 628.594 1001.61C630.008 1002.91 633.82 1005.52 637.757 1005.52C644.001 1005.04 648.334 998.304 649.72 994.995C650.794 992.449 654.471 985.543 660.579 978.281C668.317 966.878 660.353 961.03 655.404 959.531C652.434 958.484 645.257 955.136 640.302 950.113C632.157 941.765 625.483 946.182 623.164 949.435Z" fill="#F6F3DE"/>
<path d="M446.967 1142.31L430.549 1165.46C427.882 1169.22 426.265 1176.93 431.186 1180.24C442.589 1186.95 450.077 1192.54 452.396 1194.49C453.81 1195.79 457.623 1198.39 461.559 1198.39C467.804 1197.92 472.136 1191.18 473.522 1187.87C474.597 1185.33 478.273 1178.42 484.382 1171.16C492.119 1159.75 484.155 1153.91 479.206 1152.41C476.237 1151.36 469.059 1148.01 464.104 1142.99C455.96 1134.64 449.286 1139.06 446.967 1142.31Z" fill="#F6F3DE"/>
<path d="M1256.64 997.654L1240.22 1020.8C1237.55 1024.56 1235.94 1032.27 1240.86 1035.58C1252.26 1042.3 1259.75 1047.88 1262.07 1049.83C1263.48 1051.13 1267.29 1053.73 1271.23 1053.73C1277.47 1053.26 1281.81 1046.52 1283.19 1043.21C1284.27 1040.67 1287.94 1033.76 1294.05 1026.5C1301.79 1015.1 1293.83 1009.25 1288.88 1007.75C1285.91 1006.7 1278.73 1003.36 1273.77 998.332C1265.63 989.984 1258.96 994.401 1256.64 997.654Z" fill="#F6F3DE"/>
<path d="M796.216 1245.04L779.798 1268.19C777.131 1271.95 775.514 1279.65 780.435 1282.96C791.838 1289.68 799.326 1295.26 801.645 1297.22C803.059 1298.52 806.872 1301.12 810.808 1301.12C817.053 1300.64 821.385 1293.91 822.771 1290.6C823.846 1288.05 827.522 1281.15 833.631 1273.88C841.368 1262.48 833.404 1256.63 828.455 1255.13C825.486 1254.09 818.308 1250.74 813.353 1245.72C805.209 1237.37 798.535 1241.79 796.216 1245.04Z" fill="#F6F3DE"/>
<path d="M706.019 1423.24L689.601 1446.39C686.935 1450.15 685.318 1457.85 690.238 1461.16C701.641 1467.88 709.13 1473.47 711.449 1475.42C712.863 1476.72 716.675 1479.32 720.612 1479.32C726.856 1478.84 731.189 1472.11 732.574 1468.8C733.649 1466.25 737.326 1459.35 743.434 1452.09C751.172 1440.68 743.208 1434.83 738.259 1433.34C735.289 1432.29 728.112 1428.94 723.157 1423.92C715.012 1415.57 708.338 1419.99 706.019 1423.24Z" fill="#F6F3DE"/>
<path d="M530.768 1620.74L514.35 1643.89C511.684 1647.65 510.066 1655.36 514.987 1658.67C526.39 1665.39 533.879 1670.97 536.198 1672.92C537.612 1674.22 541.424 1676.83 545.36 1676.83C551.605 1676.35 555.937 1669.61 557.323 1666.3C558.398 1663.76 562.074 1656.85 568.183 1649.59C575.92 1638.19 567.957 1632.34 563.008 1630.84C560.038 1629.79 552.86 1626.45 547.906 1621.42C539.761 1613.07 533.087 1617.49 530.768 1620.74Z" fill="#F6F3DE"/>
<path d="M1340.54 1473.56L1324.12 1496.7C1321.46 1500.46 1319.84 1508.17 1324.76 1511.48C1336.16 1518.2 1343.65 1523.78 1345.97 1525.73C1347.38 1527.03 1351.2 1529.64 1355.13 1529.64C1361.38 1529.16 1365.71 1522.42 1367.1 1519.12C1368.17 1516.57 1371.85 1509.66 1377.96 1502.4C1385.69 1491 1377.73 1485.15 1372.78 1483.65C1369.81 1482.6 1362.63 1479.26 1357.68 1474.23C1349.53 1465.88 1342.86 1470.3 1340.54 1473.56Z" fill="#F6F3DE"/>
<path d="M879.071 1718.84L862.653 1741.99C859.986 1745.75 858.369 1753.46 863.29 1756.77C874.692 1763.49 882.181 1769.07 884.5 1771.02C885.914 1772.32 889.726 1774.92 893.663 1774.92C899.907 1774.45 904.24 1767.71 905.626 1764.4C906.7 1761.86 910.377 1754.95 916.486 1747.69C924.223 1736.29 916.259 1730.44 911.31 1728.94C908.341 1727.89 901.163 1724.54 896.208 1719.52C888.064 1711.17 881.39 1715.59 879.071 1718.84Z" fill="#F6F3DE"/>
<path d="M1174.83 523.849L1158.41 546.996C1155.75 550.756 1154.13 558.464 1159.05 561.773C1170.45 568.493 1177.94 574.075 1180.26 576.027C1181.67 577.328 1185.49 579.929 1189.42 579.929C1195.67 579.454 1200 572.718 1201.39 569.409C1202.46 566.864 1206.14 559.958 1212.25 552.695C1219.98 541.292 1212.02 535.444 1207.07 533.945C1204.1 532.899 1196.92 529.55 1191.97 524.527C1183.82 516.179 1177.15 520.597 1174.83 523.849Z" fill="#F6F3DE"/>
<g clip-path="url(#clip20_31_314)">
<path d="M502.076 157.118L474.099 161.877C469.555 162.649 462.961 166.957 464.101 172.776C467.412 185.59 468.76 194.833 469.02 197.853C469.1 199.772 469.956 204.308 472.74 207.091C477.491 211.171 485.318 209.471 488.638 208.111C491.197 207.071 498.68 204.788 508.135 203.972C521.669 201.38 520.173 191.613 517.734 187.054C516.374 184.214 513.666 176.771 513.715 169.716C513.859 158.053 506.016 156.458 502.076 157.118Z" fill="#F6F3DE"/>
</g>
<path d="M56.1558 439.35L39.7378 462.498C37.0715 466.257 35.454 473.966 40.3749 477.274C51.7776 483.994 59.2663 489.577 61.5853 491.528C62.9994 492.829 66.8116 495.431 70.7482 495.431C76.9926 494.955 81.3252 488.219 82.7109 484.91C83.7856 482.365 87.4621 475.459 93.5707 468.196C101.308 456.794 93.3445 450.945 88.3954 449.446C85.4259 448.4 78.2483 445.051 73.2935 440.028C65.1487 431.68 58.4747 436.098 56.1558 439.35Z" fill="#F6F3DE"/>
<g clip-path="url(#clip21_31_314)">
<path d="M155.974 551.046L127.997 555.804C123.453 556.577 116.859 560.884 117.999 566.703C121.31 579.518 122.658 588.76 122.918 591.78C122.998 593.7 123.854 598.235 126.637 601.019C131.389 605.098 139.216 603.399 142.535 602.039C145.095 600.999 152.578 598.715 162.033 597.899C175.567 595.308 174.071 585.541 171.632 580.981C170.272 578.142 167.564 570.699 167.612 563.643C167.756 551.981 159.913 550.385 155.974 551.046Z" fill="#F6F3DE"/>
</g>
<g clip-path="url(#clip22_31_314)">
<path d="M852.374 261.731L824.397 266.49C819.854 267.262 813.259 271.57 814.399 277.389C817.711 290.203 819.058 299.446 819.318 302.466C819.398 304.385 820.254 308.921 823.038 311.704C827.789 315.784 835.616 314.084 838.936 312.724C841.496 311.684 848.979 309.401 858.433 308.585C871.968 305.993 870.472 296.226 868.032 291.667C866.672 288.827 863.965 281.384 864.013 274.329C864.157 262.666 856.314 261.071 852.374 261.731Z" fill="#F6F3DE"/>
</g>
<g clip-path="url(#clip23_31_314)">
<path d="M1168.06 372.845L1140.08 377.603C1135.54 378.376 1128.95 382.683 1130.09 388.502C1133.4 401.317 1134.75 410.56 1135.01 413.579C1135.09 415.499 1135.94 420.034 1138.73 422.818C1143.48 426.897 1151.3 425.198 1154.62 423.838C1157.18 422.798 1164.67 420.514 1174.12 419.698C1187.66 417.107 1186.16 407.34 1183.72 402.781C1182.36 399.941 1179.65 392.498 1179.7 385.442C1179.84 373.78 1172 372.185 1168.06 372.845Z" fill="#F6F3DE"/>
</g>
<g clip-path="url(#clip24_31_314)">
<path d="M1255.11 190.662L1227.13 195.42C1222.59 196.193 1216 200.5 1217.14 206.319C1220.45 219.134 1221.8 228.376 1222.06 231.396C1222.14 233.316 1222.99 237.851 1225.78 240.635C1230.53 244.714 1238.35 243.015 1241.67 241.655C1244.23 240.615 1251.72 238.331 1261.17 237.515C1274.7 234.924 1273.21 225.157 1270.77 220.597C1269.41 217.758 1266.7 210.315 1266.75 203.259C1266.89 191.597 1259.05 190.001 1255.11 190.662Z" fill="#F6F3DE"/>
</g>
<g clip-path="url(#clip25_31_314)">
<path d="M909.009 85.8376L881.032 90.596C876.488 91.3688 869.894 95.676 871.034 101.495C874.345 114.31 875.693 123.552 875.953 126.572C876.033 128.492 876.889 133.027 879.672 135.811C884.424 139.89 892.251 138.191 895.57 136.831C898.13 135.791 905.613 133.507 915.068 132.691C928.602 130.1 927.106 120.333 924.667 115.773C923.307 112.934 920.599 105.491 920.647 98.4354C920.791 86.7729 912.948 85.1775 909.009 85.8376Z" fill="#F6F3DE"/>
</g>
<g clip-path="url(#clip26_31_314)">
<path d="M764.275 444.336L736.298 449.094C731.754 449.867 725.16 454.174 726.3 459.994C729.611 472.808 730.959 482.051 731.219 485.07C731.299 486.99 732.155 491.525 734.939 494.309C739.69 498.389 747.517 496.689 750.837 495.329C753.396 494.289 760.879 492.005 770.334 491.19C783.868 488.598 782.372 478.831 779.933 474.272C778.573 471.432 775.865 463.989 775.914 456.934C776.058 445.271 768.214 443.676 764.275 444.336Z" fill="#F6F3DE"/>
</g>
<path d="M458.893 368.07L442.475 391.217C439.809 394.976 438.192 402.685 443.113 405.994C454.515 412.713 462.004 418.296 464.323 420.247C465.737 421.548 469.549 424.15 473.486 424.15C479.73 423.675 484.063 416.939 485.449 413.63C486.523 411.084 490.2 404.178 496.308 396.916C504.046 385.513 496.082 379.665 491.133 378.166C488.164 377.119 480.986 373.771 476.031 368.748C467.886 360.4 461.212 364.817 458.893 368.07Z" fill="#F6F3DE"/>
<path d="M723.19 150.036L706.772 173.183C704.106 176.942 702.488 184.651 707.409 187.96C718.812 194.679 726.301 200.262 728.62 202.213C730.034 203.514 733.846 206.116 737.783 206.116C744.027 205.641 748.359 198.905 749.745 195.596C750.82 193.051 754.496 186.144 760.605 178.882C768.343 167.479 760.379 161.631 755.43 160.132C752.46 159.085 745.283 155.737 740.328 150.714C732.183 142.366 725.509 146.783 723.19 150.036Z" fill="#F6F3DE"/>
<path d="M1325.2 53.5975L1308.78 76.745C1306.11 80.5042 1304.5 88.2129 1309.42 91.5218C1320.82 98.2412 1328.31 103.824 1330.63 105.775C1332.04 107.076 1335.85 109.678 1339.79 109.678C1346.04 109.203 1350.37 102.466 1351.75 99.1575C1352.83 96.6123 1356.51 89.7062 1362.61 82.4437C1370.35 71.0409 1362.39 65.1925 1357.44 63.6936C1354.47 62.6473 1347.29 59.2988 1342.34 54.2758C1334.19 45.9274 1327.52 50.3451 1325.2 53.5975Z" fill="#F6F3DE"/>
<path d="M1067.2 261.149L1050.78 284.297C1048.11 288.056 1046.49 295.765 1051.41 299.074C1062.82 305.793 1070.31 311.376 1072.62 313.327C1074.04 314.628 1077.85 317.23 1081.79 317.23C1088.03 316.755 1092.36 310.018 1093.75 306.709C1094.82 304.164 1098.5 297.258 1104.61 289.995C1112.35 278.593 1104.38 272.744 1099.43 271.245C1096.47 270.199 1089.29 266.851 1084.33 261.828C1076.19 253.479 1069.51 257.897 1067.2 261.149Z" fill="#F6F3DE"/>
<path d="M368.697 546.271L352.279 569.418C349.613 573.177 347.995 580.886 352.916 584.195C364.319 590.914 371.808 596.497 374.127 598.448C375.541 599.749 379.353 602.351 383.29 602.351C389.534 601.876 393.866 595.139 395.252 591.831C396.327 589.285 400.003 582.379 406.112 575.117C413.85 563.714 405.886 557.866 400.937 556.367C397.967 555.32 390.79 551.972 385.835 546.949C377.69 538.6 371.016 543.018 368.697 546.271Z" fill="#F6F3DE"/>
<path d="M979.096 443.543L962.678 466.691C960.012 470.45 958.395 478.158 963.315 481.467C974.718 488.187 982.207 493.769 984.526 495.721C985.94 497.022 989.752 499.623 993.689 499.623C999.933 499.148 1004.27 492.412 1005.65 489.103C1006.73 486.558 1010.4 479.652 1016.51 472.389C1024.25 460.987 1016.28 455.138 1011.34 453.639C1008.37 452.593 1001.19 449.244 996.234 444.221C988.089 435.873 981.415 440.291 979.096 443.543Z" fill="#F6F3DE"/>
<path d="M1383.93 370.166L1367.51 393.314C1364.85 397.073 1363.23 404.782 1368.15 408.09C1379.55 414.81 1387.04 420.392 1389.36 422.344C1390.78 423.645 1394.59 426.247 1398.52 426.247C1404.77 425.771 1409.1 419.035 1410.49 415.726C1411.56 413.181 1415.24 406.275 1421.35 399.012C1429.08 387.61 1421.12 381.761 1416.17 380.262C1413.2 379.216 1406.02 375.867 1401.07 370.844C1392.92 362.496 1386.25 366.914 1383.93 370.166Z" fill="#F6F3DE"/>
<path d="M1411.2 525.306L1394.78 548.453C1392.12 552.212 1390.5 559.921 1395.42 563.23C1406.82 569.949 1414.31 575.532 1416.63 577.483C1418.04 578.784 1421.86 581.386 1425.79 581.386C1432.04 580.911 1436.37 574.175 1437.76 570.866C1438.83 568.321 1442.51 561.414 1448.62 554.152C1456.35 542.749 1448.39 536.901 1443.44 535.402C1440.47 534.356 1433.29 531.007 1428.34 525.984C1420.19 517.636 1413.52 522.053 1411.2 525.306Z" fill="#F6F3DE"/>
<path d="M802.899 632.226L786.481 655.374C783.814 659.133 782.197 666.842 787.118 670.151C798.52 676.87 806.009 682.453 808.328 684.404C809.742 685.705 813.554 688.307 817.491 688.307C823.735 687.832 828.068 681.095 829.454 677.786C830.528 675.241 834.205 668.335 840.313 661.073C848.051 649.67 840.087 643.821 835.138 642.323C832.169 641.276 824.991 637.928 820.036 632.905C811.891 624.556 805.217 628.974 802.899 632.226Z" fill="#F6F3DE"/>
<g clip-path="url(#clip27_31_314)">
<path d="M587.028 628.826L559.051 633.585C554.508 634.357 547.913 638.665 549.053 644.484C552.365 657.298 553.713 666.541 553.973 669.561C554.053 671.48 554.908 676.016 557.692 678.799C562.443 682.879 570.27 681.179 573.59 679.819C576.15 678.78 583.633 676.496 593.087 675.68C606.622 673.088 605.126 663.321 602.686 658.762C601.326 655.922 598.619 648.479 598.667 641.424C598.811 629.762 590.968 628.166 587.028 628.826Z" fill="#F6F3DE"/>
</g>
<g clip-path="url(#clip28_31_314)">
<path d="M992.912 561.739L964.935 566.497C960.392 567.27 953.797 571.577 954.937 577.397C958.249 590.211 959.597 599.454 959.857 602.473C959.937 604.393 960.792 608.929 963.576 611.712C968.327 615.792 976.154 614.092 979.474 612.732C982.034 611.692 989.517 609.409 998.971 608.593C1012.51 606.001 1011.01 596.234 1008.57 591.675C1007.21 588.835 1004.5 581.392 1004.55 574.337C1004.7 562.674 996.852 561.079 992.912 561.739Z" fill="#F6F3DE"/>
</g>
<g clip-path="url(#clip29_31_314)">
<path d="M1341.11 662.37L1313.14 667.128C1308.59 667.901 1302 672.208 1303.14 678.028C1306.45 690.842 1307.8 700.085 1308.06 703.104C1308.14 705.024 1308.99 709.56 1311.78 712.343C1316.53 716.423 1324.35 714.723 1327.67 713.363C1330.23 712.323 1337.72 710.039 1347.17 709.224C1360.71 706.632 1359.21 696.865 1356.77 692.306C1355.41 689.466 1352.7 682.023 1352.75 674.968C1352.9 663.305 1345.05 661.71 1341.11 662.37Z" fill="#F6F3DE"/>
</g>
<g clip-path="url(#clip30_31_314)">
<path d="M846.081 918.141L818.104 922.899C813.561 923.672 806.966 927.979 808.106 933.798C811.417 946.613 812.765 955.856 813.025 958.875C813.105 960.795 813.961 965.33 816.745 968.114C821.496 972.193 829.323 970.494 832.643 969.134C835.202 968.094 842.685 965.81 852.14 964.994C865.674 962.403 864.179 952.636 861.739 948.077C860.379 945.237 857.671 937.794 857.72 930.739C857.864 919.076 850.021 917.481 846.081 918.141Z" fill="#F6F3DE"/>
</g>
<path d="M1465.74 843.971L1449.32 867.119C1446.65 870.878 1445.04 878.586 1449.96 881.895C1461.36 888.615 1468.85 894.197 1471.17 896.149C1472.58 897.45 1476.39 900.051 1480.33 900.051C1486.57 899.576 1490.91 892.84 1492.29 889.531C1493.37 886.986 1497.04 880.08 1503.15 872.817C1510.89 861.414 1502.93 855.566 1497.98 854.067C1495.01 853.021 1487.83 849.672 1482.88 844.649C1474.73 836.301 1468.06 840.719 1465.74 843.971Z" fill="#F6F3DE"/>
<path d="M1495.1 999.111L1478.69 1022.26C1476.02 1026.02 1474.4 1033.73 1479.32 1037.03C1490.73 1043.75 1498.21 1049.34 1500.53 1051.29C1501.95 1052.59 1505.76 1055.19 1509.7 1055.19C1515.94 1054.72 1520.27 1047.98 1521.66 1044.67C1522.73 1042.13 1526.41 1035.22 1532.52 1027.96C1540.26 1016.55 1532.29 1010.71 1527.34 1009.21C1524.37 1008.16 1517.2 1004.81 1512.24 999.789C1504.1 991.44 1497.42 995.858 1495.1 999.111Z" fill="#F6F3DE"/>
<path d="M1236.05 1208.76L1219.63 1231.91C1216.97 1235.67 1215.35 1243.37 1220.27 1246.68C1231.67 1253.4 1239.16 1258.99 1241.48 1260.94C1242.89 1262.24 1246.71 1264.84 1250.64 1264.84C1256.89 1264.36 1261.22 1257.63 1262.61 1254.32C1263.68 1251.77 1267.36 1244.87 1273.47 1237.6C1281.2 1226.2 1273.24 1220.35 1268.29 1218.85C1265.32 1217.81 1258.14 1214.46 1253.19 1209.44C1245.04 1201.09 1238.37 1205.51 1236.05 1208.76Z" fill="#F6F3DE"/>
<path d="M1145.85 1391.15L1129.44 1414.3C1126.77 1418.06 1125.15 1425.77 1130.07 1429.08C1141.48 1435.8 1148.97 1441.38 1151.28 1443.33C1152.7 1444.63 1156.51 1447.23 1160.45 1447.23C1166.69 1446.76 1171.02 1440.02 1172.41 1436.71C1173.48 1434.17 1177.16 1427.26 1183.27 1420C1191.01 1408.6 1183.04 1402.75 1178.09 1401.25C1175.12 1400.2 1167.95 1396.85 1162.99 1391.83C1154.85 1383.48 1148.17 1387.9 1145.85 1391.15Z" fill="#F6F3DE"/>
<path d="M1551.74 1317.78L1535.32 1340.92C1532.65 1344.68 1531.04 1352.39 1535.96 1355.7C1547.36 1362.42 1554.85 1368 1557.17 1369.95C1558.58 1371.25 1562.39 1373.86 1566.33 1373.86C1572.58 1373.38 1576.91 1366.64 1578.29 1363.34C1579.37 1360.79 1583.05 1353.88 1589.15 1346.62C1596.89 1335.22 1588.93 1329.37 1583.98 1327.87C1581.01 1326.83 1573.83 1323.48 1568.88 1318.45C1560.73 1310.11 1554.06 1314.52 1551.74 1317.78Z" fill="#F6F3DE"/>
<path d="M1576.91 1470.82L1560.49 1493.97C1557.83 1497.73 1556.21 1505.43 1561.13 1508.74C1572.53 1515.46 1580.02 1521.05 1582.34 1523C1583.75 1524.3 1587.57 1526.9 1591.5 1526.9C1597.75 1526.42 1602.08 1519.69 1603.47 1516.38C1604.54 1513.83 1608.22 1506.93 1614.32 1499.67C1622.06 1488.26 1614.1 1482.41 1609.15 1480.91C1606.18 1479.87 1599 1476.52 1594.05 1471.5C1585.9 1463.15 1579.23 1467.57 1576.91 1470.82Z" fill="#F6F3DE"/>
<path d="M1318.91 1682.56L1302.49 1705.71C1299.82 1709.47 1298.2 1717.18 1303.13 1720.49C1314.53 1727.21 1322.02 1732.79 1324.34 1734.74C1325.75 1736.04 1329.56 1738.64 1333.5 1738.64C1339.74 1738.17 1344.08 1731.43 1345.46 1728.12C1346.54 1725.58 1350.21 1718.67 1356.32 1711.41C1364.06 1700.01 1356.09 1694.16 1351.15 1692.66C1348.18 1691.61 1341 1688.26 1336.04 1683.24C1327.9 1674.89 1321.23 1679.31 1318.91 1682.56Z" fill="#F6F3DE"/>
<path d="M969.657 1581.93L953.239 1605.08C950.573 1608.84 948.955 1616.55 953.876 1619.86C965.279 1626.58 972.768 1632.16 975.087 1634.11C976.501 1635.41 980.313 1638.01 984.25 1638.01C990.494 1637.54 994.827 1630.8 996.212 1627.49C997.287 1624.95 1000.96 1618.04 1007.07 1610.78C1014.81 1599.38 1006.85 1593.53 1001.9 1592.03C998.927 1590.98 991.75 1587.63 986.795 1582.61C978.65 1574.26 971.976 1578.68 969.657 1581.93Z" fill="#F6F3DE"/>
<path d="M628.798 1315.68L612.38 1338.83C609.714 1342.59 608.097 1350.29 613.017 1353.6C624.42 1360.32 631.909 1365.91 634.228 1367.86C635.642 1369.16 639.454 1371.76 643.391 1371.76C649.635 1371.28 653.968 1364.55 655.354 1361.24C656.428 1358.69 660.105 1351.79 666.213 1344.53C673.951 1333.12 665.987 1327.27 661.038 1325.78C658.068 1324.73 650.891 1321.38 645.936 1316.36C637.791 1308.01 631.117 1312.43 628.798 1315.68Z" fill="#F6F3DE"/>
<path d="M536.504 1498.07L520.086 1521.22C517.42 1524.98 515.803 1532.69 520.723 1536C532.126 1542.72 539.615 1548.3 541.934 1550.25C543.348 1551.55 547.16 1554.15 551.097 1554.15C557.341 1553.68 561.674 1546.94 563.059 1543.63C564.134 1541.09 567.811 1534.18 573.919 1526.92C581.657 1515.52 573.693 1509.67 568.744 1508.17C565.774 1507.12 558.597 1503.77 553.642 1498.75C545.497 1490.4 538.823 1494.82 536.504 1498.07Z" fill="#F6F3DE"/>
<path d="M221.866 1386.96L205.448 1410.11C202.781 1413.87 201.164 1421.57 206.085 1424.88C217.487 1431.6 224.976 1437.19 227.295 1439.14C228.709 1440.44 232.521 1443.04 236.458 1443.04C242.702 1442.56 247.035 1435.83 248.421 1432.52C249.495 1429.97 253.172 1423.07 259.281 1415.81C267.018 1404.4 259.054 1398.55 254.105 1397.06C251.136 1396.01 243.958 1392.66 239.003 1387.64C230.859 1379.29 224.185 1383.71 221.866 1386.96Z" fill="#F6F3DE"/>
<path d="M1060.9 913.155L1044.48 936.302C1041.82 940.062 1040.2 947.77 1045.12 951.079C1056.52 957.799 1064.01 963.381 1066.33 965.333C1067.75 966.633 1071.56 969.235 1075.49 969.235C1081.74 968.76 1086.07 962.024 1087.46 958.715C1088.53 956.17 1092.21 949.264 1098.32 942.001C1106.05 930.598 1098.09 924.75 1093.14 923.251C1090.17 922.205 1082.99 918.856 1078.04 913.833C1069.9 905.485 1063.22 909.902 1060.9 913.155Z" fill="#F6F3DE"/>
<path d="M454.698 1020.08L438.28 1043.22C435.614 1046.98 433.997 1054.69 438.917 1058C450.32 1064.72 457.809 1070.3 460.128 1072.25C461.542 1073.55 465.354 1076.16 469.291 1076.16C475.535 1075.68 479.868 1068.94 481.253 1065.64C482.328 1063.09 486.005 1056.18 492.113 1048.92C499.851 1037.52 491.887 1031.67 486.938 1030.17C483.968 1029.13 476.791 1025.78 471.836 1020.75C463.691 1012.41 457.017 1016.82 454.698 1020.08Z" fill="#F6F3DE"/>
<path d="M884.705 1103.93L868.287 1127.08C865.62 1130.84 864.003 1138.55 868.924 1141.86C880.326 1148.58 887.815 1154.16 890.134 1156.11C891.548 1157.41 895.36 1160.02 899.297 1160.02C905.541 1159.54 909.874 1152.8 911.26 1149.49C912.334 1146.95 916.011 1140.04 922.12 1132.78C929.857 1121.38 921.893 1115.53 916.944 1114.03C913.975 1112.98 906.797 1109.64 901.842 1104.61C893.697 1096.26 887.023 1100.68 884.705 1103.93Z" fill="#F6F3DE"/>
<g clip-path="url(#clip31_31_314)">
<path d="M182.193 702.203L154.216 706.962C149.673 707.734 143.078 712.042 144.218 717.861C147.53 730.675 148.877 739.918 149.137 742.938C149.217 744.857 150.073 749.393 152.857 752.176C157.608 756.256 165.435 754.556 168.755 753.196C171.314 752.156 178.797 749.873 188.252 749.057C201.787 746.465 200.291 736.698 197.851 732.139C196.491 729.299 193.784 721.856 193.832 714.801C193.976 703.138 186.133 701.543 182.193 702.203Z" fill="#F6F3DE"/>
</g>
<g clip-path="url(#clip32_31_314)">
<path d="M96.192 226.302L68.215 231.06C63.6715 231.833 57.0769 236.14 58.2167 241.96C61.5283 254.774 62.8761 264.017 63.1361 267.036C63.2161 268.956 64.072 273.492 66.8556 276.275C71.607 280.355 79.434 278.655 82.7536 277.295C85.3132 276.255 92.7963 273.972 102.251 273.156C115.785 270.564 114.289 260.797 111.85 256.238C110.49 253.398 107.782 245.955 107.831 238.9C107.975 227.237 100.132 225.642 96.192 226.302Z" fill="#F6F3DE"/>
</g>
<path d="M137.962 915.251L121.544 938.399C118.878 942.158 117.26 949.867 122.181 953.176C133.584 959.895 141.072 965.478 143.391 967.429C144.805 968.73 148.618 971.332 152.554 971.332C158.799 970.857 163.131 964.12 164.517 960.811C165.592 958.266 169.268 951.36 175.377 944.097C183.114 932.695 175.15 926.846 170.201 925.347C167.232 924.301 160.054 920.953 155.1 915.93C146.955 907.581 140.281 911.999 137.962 915.251Z" fill="#F6F3DE"/>
<path d="M542.797 841.874L526.379 865.022C523.713 868.781 522.095 876.49 527.016 879.799C538.419 886.518 545.908 892.101 548.227 894.052C549.641 895.353 553.453 897.955 557.39 897.955C563.634 897.48 567.967 890.743 569.352 887.435C570.427 884.889 574.103 877.983 580.212 870.721C587.95 859.318 579.986 853.469 575.037 851.971C572.067 850.924 564.89 847.576 559.935 842.553C551.79 834.204 545.116 838.622 542.797 841.874Z" fill="#F6F3DE"/>
<path d="M1151.1 732.958L1134.68 756.105C1132.01 759.865 1130.4 767.573 1135.32 770.882C1146.72 777.602 1154.21 783.184 1156.53 785.136C1157.94 786.436 1161.75 789.038 1165.69 789.038C1171.94 788.563 1176.27 781.827 1177.65 778.518C1178.73 775.973 1182.41 769.067 1188.51 761.804C1196.25 750.401 1188.29 744.553 1183.34 743.054C1180.37 742.008 1173.19 738.659 1168.24 733.636C1160.09 725.288 1153.42 729.705 1151.1 732.958Z" fill="#F6F3DE"/>
<defs>
<clipPath id="clip0_31_314">
<rect width="134.246" height="134.175" fill="white" transform="translate(27.2687 69.1838)"/>
</clipPath>
<clipPath id="clip1_31_314">
<rect width="134.246" height="134.175" fill="white" transform="translate(201.369 362.691)"/>
</clipPath>
<clipPath id="clip2_31_314">
<rect width="134.246" height="134.175" fill="white" transform="translate(283.175 836.496)"/>
</clipPath>
<clipPath id="clip3_31_314">
<rect width="134.246" height="134.175" fill="white" transform="translate(195.076 1016.79)"/>
</clipPath>
<clipPath id="clip4_31_314">
<rect width="134.246" height="134.175" fill="white" transform="translate(277.828 1497.94)"/>
</clipPath>
<clipPath id="clip5_31_314">
<rect width="134.246" height="134.175" fill="white" transform="translate(222.345 1169.84)"/>
</clipPath>
<clipPath id="clip6_31_314">
<rect width="134.246" height="134.175" fill="white" transform="translate(305.097 1650.98)"/>
</clipPath>
<clipPath id="clip7_31_314">
<rect width="134.246" height="134.175" fill="white" transform="translate(627.18 1100.65)"/>
</clipPath>
<clipPath id="clip8_31_314">
<rect width="134.246" height="134.175" fill="white" transform="translate(1034.11 1029.37)"/>
</clipPath>
<clipPath id="clip9_31_314">
<rect width="134.246" height="134.175" fill="white" transform="translate(1382.31 1132.1)"/>
</clipPath>
<clipPath id="clip10_31_314">
<rect width="134.246" height="134.175" fill="white" transform="translate(887.281 1383.68)"/>
</clipPath>
<clipPath id="clip11_31_314">
<rect width="134.246" height="134.175" fill="white" transform="translate(1115.92 1503.18)"/>
</clipPath>
<clipPath id="clip12_31_314">
<rect width="134.246" height="134.175" fill="white" transform="translate(711.084 1574.46)"/>
</clipPath>
<clipPath id="clip13_31_314">
<rect width="134.246" height="134.175" fill="white" transform="translate(1466.22 1608)"/>
</clipPath>
<clipPath id="clip14_31_314">
<rect width="134.246" height="134.175" fill="white" transform="translate(1208.21 836.496)"/>
</clipPath>
<clipPath id="clip15_31_314">
<rect width="134.246" height="134.175" fill="white" transform="translate(977.478 1203.38)"/>
</clipPath>
<clipPath id="clip16_31_314">
<rect width="134.246" height="134.175" fill="white" transform="translate(1292.12 1312.4)"/>
</clipPath>
<clipPath id="clip17_31_314">
<rect width="134.246" height="134.175" fill="white" transform="translate(1059.28 1679.28)"/>
</clipPath>
<clipPath id="clip18_31_314">
<rect width="134.246" height="134.175" fill="white" transform="translate(369.176 1312.4)"/>
</clipPath>
<clipPath id="clip19_31_314">
<rect width="134.246" height="134.175" fill="white" transform="translate(892.525 729.575)"/>
</clipPath>
<clipPath id="clip20_31_314">
<rect width="134.246" height="134.175" fill="white" transform="translate(459.373 150.947)"/>
</clipPath>
<clipPath id="clip21_31_314">
<rect width="134.246" height="134.175" fill="white" transform="translate(113.27 545.085)"/>
</clipPath>
<clipPath id="clip22_31_314">
<rect width="134.246" height="134.175" fill="white" transform="translate(809.67 255.771)"/>
</clipPath>
<clipPath id="clip23_31_314">
<rect width="134.246" height="134.175" fill="white" transform="translate(1125.36 366.884)"/>
</clipPath>
<clipPath id="clip24_31_314">
<rect width="134.246" height="134.175" fill="white" transform="translate(1212.41 184.49)"/>
</clipPath>
<clipPath id="clip25_31_314">
<rect width="134.246" height="134.175" fill="white" transform="translate(866.305 79.6663)"/>
</clipPath>
<clipPath id="clip26_31_314">
<rect width="134.246" height="134.175" fill="white" transform="translate(721.572 438.165)"/>
</clipPath>
<clipPath id="clip27_31_314">
<rect width="134.246" height="134.175" fill="white" transform="translate(544.325 622.655)"/>
</clipPath>
<clipPath id="clip28_31_314">
<rect width="134.246" height="134.175" fill="white" transform="translate(950.209 555.568)"/>
</clipPath>
<clipPath id="clip29_31_314">
<rect width="134.246" height="134.175" fill="white" transform="translate(1298.41 656.199)"/>
</clipPath>
<clipPath id="clip30_31_314">
<rect width="134.246" height="134.175" fill="white" transform="translate(803.378 911.969)"/>
</clipPath>
<clipPath id="clip31_31_314">
<rect width="134.246" height="134.175" fill="white" transform="translate(139.49 696.032)"/>
</clipPath>
<clipPath id="clip32_31_314">
<rect width="134.246" height="134.175" fill="white" transform="translate(53.4886 220.131)"/>
</clipPath>
</defs>
</svg>
